# xmcd
#
# Track frame offsets: 
#        150
#        12470
#        23573
#        29920
#        41540
#        53895
#        66370
#        75773
#        88305
#        98120
#        111133
#        121688
#        130288
#        141495
#        149480
#        166805
#        177488
#        188590
#        195533
#        206800
#
# Disc length: 2931 seconds
#
# Revision: 6
# Processed by: cddbd v1.5.2PL0 Copyright (c) Steve Scherf et al.
# Submitted via: ExactAudioCopyFreeDBPlugin 1.0
#
DISCID=1e0b7114
DTITLE=Various Artist - Legends - Country Special
DYEAR=1993
DGENRE=Country
TTITLE0=Hank Locklin - Queen Of Hearts
TTITLE1=Sanford Clark - Big Time Day Tomorow
TTITLE2=Lee Conway - People
TTITLE3=Patsy Cline - Let the Teardrops Fall
TTITLE4=Faron Young - Country Girl
TTITLE5=Bobby Bare - When Love is Gone
TTITLE6=Country Deputies - Red Haired Boy
TTITLE7=Patsy Cline - Fingerprints
TTITLE8=Buck Owens - There Goes My Love
TTITLE9=Bobby Bare - I Took a Memory to Lunch
TTITLE10=The Jordanaires - You're Wasting Your Time Girl
TTITLE11=George Jones - That's the Way I Feel
TTITLE12=Hank Thompson - Who Left the Door to Heaven Open
TTITLE13=Kitty Wells - Thou Shalt Not Steal
TTITLE14=Lynn Anderson - Close to You
TTITLE15=Hank Locklin - Please Help Me, I'm Falling
TTITLE16=Buck Owens - Down on the Corner of Love
TTITLE17=Webb Pierce - I'm Walking the Dog
TTITLE18=Geoge Jones - One Is a Lonely Number
TTITLE19=Helen Morgan - D.I.V.O.R.C.E.
EXTD=YEAR: 1993
EXTT0=
EXTT1=
EXTT2=
EXTT3=
EXTT4=
EXTT5=
EXTT6=
EXTT7=
EXTT8=
EXTT9=
EXTT10=
EXTT11=
EXTT12=
EXTT13=
EXTT14=
EXTT15=
EXTT16=
EXTT17=
EXTT18=
EXTT19=
PLAYORDER=
